<svg width="47" height="47" viewBox="0 0 47 47" fill="none" xmlns="http://www.w3.org/2000/svg">
<path d="M36 24C36 31.5 27.9411 34 18 34C8.05887 34 0 31.5 0 24C0 16.5 8.05887 14 18 14C27.9411 14 36 16.5 36 24Z" fill="#AEAFF7"/>
<path d="M18 0C21 0 22 2.68629 22 6C22 9.31371 21 12 18 12C15 12 14 9.31371 14 6C14 2.68629 15 0 18 0Z" fill="#5BC6CB"/>
<path d="M14.3438 39.2262C8.83565 34.136 12.4692 26.5207 19.2162 19.2198C25.9632 11.9188 33.2688 7.69699 38.7769 12.7872C44.2851 17.8775 40.6515 25.4928 33.9045 32.7937C27.1575 40.0947 19.8519 44.3165 14.3438 39.2262Z" fill="#5D5FEF"/>
<path d="M44.1861 42.2949C42.15 44.4982 39.4984 43.4094 37.0648 41.1604C34.6312 38.9114 33.337 36.3538 35.3731 34.1506C37.4092 31.9473 40.0607 33.0361 42.4944 35.2851C44.928 37.5341 46.2222 40.0917 44.1861 42.2949Z" fill="#5BC6CB"/>
</svg>
