<svg width="160" height="47" viewBox="0 0 160 47" fill="none" xmlns="http://www.w3.org/2000/svg">
<path d="M64.0203 13.4002L67.2303 23.7502L74.1303 13.4002H79.8003L75.9903 35.0002H70.5603L72.7203 22.8202L68.1003 30.0802H64.1703L62.1303 22.8202L59.9703 35.0002H54.5703L58.3803 13.4002H64.0203Z" fill="black"/>
<path d="M86.6837 31.1602C87.1437 31.1602 87.5537 31.0602 87.9137 30.8602L87.7637 34.2502C86.8237 35.0302 85.7537 35.4202 84.5537 35.4202C82.7337 35.4202 81.5537 35.0002 81.0137 34.1602C80.6537 33.6002 80.4737 33.0102 80.4737 32.3902C80.4737 31.7502 80.5137 31.1902 80.5937 30.7102L82.3937 20.5702H87.4937L85.8137 30.0202C85.7937 30.1402 85.7837 30.2502 85.7837 30.3502C85.7837 30.8902 86.0837 31.1602 86.6837 31.1602ZM82.9937 15.6802C82.9937 14.4002 83.2737 13.4702 83.8337 12.8902C84.4137 12.2902 85.3037 11.9902 86.5037 11.9902C88.1837 11.9902 89.0237 12.7302 89.0237 14.2102C89.0237 15.4702 88.7337 16.3902 88.1537 16.9702C87.5937 17.5502 86.7037 17.8402 85.4837 17.8402C83.8237 17.8402 82.9937 17.1202 82.9937 15.6802Z" fill="black"/>
<path d="M99.418 25.7902C99.418 24.9302 98.998 24.5002 98.158 24.5002C97.338 24.5002 96.658 24.8102 96.118 25.4302L94.438 35.0002H89.338L91.888 20.5702H96.628L96.298 22.3402C97.478 20.8802 98.968 20.1502 100.768 20.1502C102.568 20.1502 103.738 20.5902 104.278 21.4702C104.618 22.0302 104.788 22.6702 104.788 23.3902C104.788 24.1102 104.738 24.7802 104.638 25.4002L103.828 30.0202C103.808 30.1402 103.798 30.2502 103.798 30.3502C103.798 30.8902 104.098 31.1602 104.698 31.1602C105.158 31.1602 105.568 31.0602 105.928 30.8602L105.778 34.2502C104.838 35.0302 103.768 35.4202 102.568 35.4202C99.848 35.4202 98.488 34.2802 98.488 32.0002C98.488 31.6002 98.528 31.1702 98.608 30.7102L99.328 26.7202C99.388 26.3602 99.418 26.0502 99.418 25.7902Z" fill="black"/>
<path d="M114.108 35.4202C111.788 35.4202 110.118 34.9002 109.098 33.8602C108.338 33.1002 107.958 32.0802 107.958 30.8002C107.958 30.3802 107.998 29.9302 108.078 29.4502L110.118 17.8402L115.608 15.5602L114.738 20.5702H123.018L122.268 24.8002H113.988L113.388 28.1902C113.308 28.5702 113.268 28.9102 113.268 29.2102C113.268 30.4702 113.868 31.1002 115.068 31.1002C115.708 31.1002 116.238 30.8302 116.658 30.2902C117.098 29.7502 117.398 29.0302 117.558 28.1302H122.538C121.698 32.9902 118.888 35.4202 114.108 35.4202Z" fill="black"/>
<path d="M138.943 33.4402C137.363 34.7602 135.123 35.4202 132.223 35.4202C129.323 35.4202 127.312 34.7502 126.192 33.4102C125.392 32.4902 124.993 31.2202 124.993 29.6002C124.993 28.8802 125.072 28.0902 125.232 27.2302L127.662 13.4002H133.062L130.632 27.1102C130.552 27.6102 130.512 28.1302 130.512 28.6702C130.512 30.0702 131.353 30.7702 133.033 30.7702C134.033 30.7702 134.833 30.5102 135.433 29.9902C136.033 29.4702 136.453 28.5102 136.693 27.1102L139.122 13.4002H144.522L142.092 27.2302C141.592 30.0302 140.543 32.1002 138.943 33.4402Z" fill="black"/>
<path d="M159.895 23.6902C159.895 24.3502 159.695 24.9602 159.295 25.5202H154.375C154.535 25.4002 154.615 25.2002 154.615 24.9202C154.615 24.6402 154.455 24.4202 154.135 24.2602C153.815 24.0802 153.405 23.9902 152.905 23.9902C151.405 23.9902 150.655 24.4502 150.655 25.3702C150.655 25.7302 150.935 25.9902 151.495 26.1502C152.055 26.3102 152.735 26.4402 153.535 26.5402C154.335 26.6402 155.135 26.7902 155.935 26.9902C156.735 27.1702 157.415 27.5402 157.975 28.1002C158.535 28.6602 158.815 29.4102 158.815 30.3502C158.815 32.0102 158.145 33.2702 156.805 34.1302C155.485 34.9902 153.555 35.4202 151.015 35.4202C148.475 35.4202 146.695 35.0102 145.675 34.1902C144.875 33.5502 144.475 32.6702 144.475 31.5502C144.475 31.2302 144.505 30.9002 144.565 30.5602L149.575 30.5002C149.535 30.7802 149.695 31.0302 150.055 31.2502C150.435 31.4502 150.985 31.5502 151.705 31.5502C152.425 31.5502 152.945 31.4802 153.265 31.3402C153.585 31.1802 153.745 30.8902 153.745 30.4702C153.745 30.1902 153.465 30.0002 152.905 29.9002C152.345 29.7802 151.655 29.6802 150.835 29.6002C150.035 29.5202 149.225 29.3902 148.405 29.2102C147.605 29.0302 146.925 28.6502 146.365 28.0702C145.805 27.4902 145.525 26.7302 145.525 25.7902C145.525 23.9702 146.225 22.5702 147.625 21.5902C149.045 20.6102 151.085 20.1202 153.745 20.1202C157.845 20.1202 159.895 21.3102 159.895 23.6902Z" fill="black"/>
<path d="M36 24C36 31.5 27.9411 34 18 34C8.05887 34 0 31.5 0 24C0 16.5 8.05887 14 18 14C27.9411 14 36 16.5 36 24Z" fill="#AEAFF7"/>
<path d="M18 0C21 0 22 2.68629 22 6C22 9.31371 21 12 18 12C15 12 14 9.31371 14 6C14 2.68629 15 0 18 0Z" fill="#5BC6CB"/>
<path d="M14.3438 39.2262C8.83565 34.136 12.4692 26.5207 19.2162 19.2198C25.9632 11.9188 33.2688 7.69699 38.7769 12.7872C44.2851 17.8775 40.6515 25.4928 33.9045 32.7937C27.1575 40.0947 19.8519 44.3165 14.3438 39.2262Z" fill="#5D5FEF"/>
<path d="M44.1861 42.2949C42.15 44.4982 39.4984 43.4094 37.0648 41.1604C34.6312 38.9114 33.337 36.3538 35.3731 34.1506C37.4092 31.9473 40.0607 33.0361 42.4944 35.2851C44.928 37.5341 46.2222 40.0917 44.1861 42.2949Z" fill="#5BC6CB"/>
</svg>
