<svg width="32" height="32" viewBox="0 0 32 32" fill="none" xmlns="http://www.w3.org/2000/svg">
 <path fill-rule="evenodd" clip-rule="evenodd" d="M32 16C32 24.8365 24.8365 32 16 32C7.16344 32 0 24.8365 0 16C0 7.16344 7.16344 0 16 0C24.8365 0 32 7.16344 32 16ZM25.3333 16C25.3333 21.1547 21.1547 25.3333 16 25.3333C10.8453 25.3333 6.66667 21.1547 6.66667 16C6.66667 10.8453 10.8453 6.66667 16 6.66667C21.1547 6.66667 25.3333 10.8453 25.3333 16ZM14.3333 13C13.5969 13 13 13.5969 13 14.3333V17.6667C13 18.4031 13.5969 19 14.3333 19H17.6667C18.4031 19 19 18.4031 19 17.6667V14.3333C19 13.5969 18.4031 13 17.6667 13H14.3333Z" fill="#2D65F8"/>
</svg>
